<svg width="343" height="193" viewBox="0 0 343 193" fill="none" xmlns="http://www.w3.org/2000/svg">
<g clip-path="url(#clip0_1_943)">
<path opacity="0.7" d="M168.317 249.981C164.797 207.741 107.01 185.945 55.5287 192.4C5.57214 198.663 -10.0585 231.587 9.011 236.851C21.357 240.259 41.6779 217.93 37.5313 185.945C33.3847 153.96 -15.6563 150.851 -30.0849 165.406C-44.5135 179.962 -13.7586 202.461 -3.5 182.247C7.69803 160.182 0.735017 107.555 -34.8905 110.333C-39.7944 116.496 -44.5709 130.027 -24.4457 134.852C0.710872 140.883 40.651 92.0732 30.9674 49.7026C21.2838 7.33197 -34.8905 27.9286 -20.5779 69.5859" stroke="#A64CED" stroke-width="38.2873"/>
<rect opacity="0.7" x="20" y="66.4771" width="114.624" height="229.974" rx="21.7641" transform="rotate(-31.8443 20 66.4771)" fill="black"/>
<g clip-path="url(#clip1_1_943)">
<rect x="24.9951" y="67.6447" width="107.369" height="222.719" rx="18.1367" transform="rotate(-31.8443 24.9951 67.6447)" fill="white"/>
<g clip-path="url(#clip2_1_943)">
<rect x="57.1863" y="105.724" width="92.86" height="76.8997" rx="14.5094" transform="rotate(-31.8443 57.1863 105.724)" fill="#F9F9F9"/>
<path opacity="0.7" d="M91.4211 155.343L103.747 147.688" stroke="#2FDBBC" stroke-width="87.0563" stroke-linecap="round"/>
<circle cx="87.01" cy="139.562" r="1.81367" transform="rotate(-7.31235 87.01 139.562)" fill="black"/>
<circle cx="101.751" cy="134.744" r="1.81367" transform="rotate(-7.31235 101.751 134.744)" fill="black"/>
<path d="M99.836 152.759C101.876 153.049 105.352 150.961 101.823 148.029C107.062 144.775 100.11 141.833 97.3427 145.202" stroke="black" stroke-width="1.45094" stroke-linecap="round" stroke-linejoin="round"/>
<path d="M140.049 137.666C142.327 136.689 143.732 135.415 144.348 134.231M137.394 132.039C143.092 129.323 145.743 131.548 144.348 134.231M128.259 154.481C139.967 162.358 134.153 139.414 132.674 134.425C131.195 129.436 128.053 120.5 132.269 119.744C135.642 119.139 136.029 124.55 136.319 128.411C136.029 124.55 136.031 118.123 138.753 118.316C142.784 118.601 141.828 124.807 141.078 127.825M139.124 129.553C140.731 127.761 145.002 124.752 147.421 127.587C148.751 129.145 148.259 130.699 147.234 131.946M144.348 134.231C145.195 133.785 146.393 132.969 147.234 131.946M147.234 131.946C151.026 139.748 153.774 152.345 151.255 160.492C148.736 168.639 141.458 172.935 139.297 173.411" stroke="black" stroke-width="1.45094" stroke-linecap="round" stroke-linejoin="round"/>
<circle cx="131.407" cy="101.472" r="3.62734" transform="rotate(-31.8443 131.407 101.472)" stroke="black" stroke-width="1.45094"/>
<circle cx="149.914" cy="83.1451" r="3.62734" transform="rotate(-31.8443 149.914 83.1451)" stroke="black" stroke-width="1.45094"/>
<path d="M134.222 98.4425L146.907 85.8666M129.301 98.0826L120.816 80.2949" stroke="black" stroke-width="1.45094" stroke-linecap="round" stroke-linejoin="round"/>
<path d="M115.162 80.8173L126.511 78.4653" stroke="black" stroke-width="1.45094" stroke-linecap="round" stroke-linejoin="round"/>
</g>
<g clip-path="url(#clip3_1_943)">
<rect x="46.0859" y="87.8517" width="17.4113" height="17.4113" rx="8.70563" transform="rotate(-31.8443 46.0859 87.8517)" fill="#DAFAF4"/>
<rect opacity="0.7" x="50.679" y="95.247" width="17.4113" height="13.0584" rx="6.52922" transform="rotate(-31.8443 50.679 95.247)" fill="#2FDBBC"/>
<circle cx="59.0217" cy="95.6165" r="0.362735" transform="rotate(-31.8443 59.0217 95.6165)" fill="black"/>
<circle cx="62.1033" cy="93.7027" r="0.362735" transform="rotate(-31.8443 62.1033 93.7027)" fill="black"/>
</g>
<path d="M70.9789 85.663L70.6022 85.0566L72.1552 84.092C72.451 83.9083 72.6292 83.6781 72.6896 83.4014C72.747 83.1198 72.6992 82.8558 72.5461 82.6093C72.4419 82.4416 72.3116 82.3142 72.1549 82.227C71.9952 82.1349 71.8194 82.0938 71.6274 82.1037C71.4404 82.1106 71.2532 82.1722 71.0659 82.2886L69.4907 83.2669L69.114 82.6605L70.5857 81.7465C70.8322 81.5934 70.9871 81.4083 71.0505 81.1913C71.1157 80.9663 71.0718 80.7306 70.9187 80.4841C70.7656 80.2376 70.5728 80.0977 70.3403 80.0644C70.1048 80.0262 69.8613 80.0852 69.6099 80.2414L68.1678 81.1371L67.7912 80.5307L69.2481 79.6258C69.5833 79.4176 69.9001 79.3062 70.1986 79.2917C70.4988 79.2691 70.7669 79.3212 71.0028 79.448C71.2436 79.5717 71.4375 79.7519 71.5845 79.9886C71.756 80.2647 71.8296 80.5537 71.8054 80.8557C71.7861 81.1546 71.6677 81.4536 71.4503 81.7526L71.3717 81.494C71.7755 81.4071 72.1437 81.4279 72.4761 81.5561C72.8104 81.6764 73.0787 81.8993 73.2808 82.2247C73.4492 82.4958 73.5342 82.7812 73.5358 83.0808C73.5374 83.3804 73.4539 83.6749 73.2851 83.9642C73.1182 84.2454 72.8548 84.4979 72.4949 84.7214L70.9789 85.663ZM70.513 85.9524L67.3253 80.82L68.0204 80.3883L71.2081 85.5206L70.513 85.9524ZM76.4607 82.3607C76.1747 82.5383 75.8761 82.635 75.5648 82.6507C75.2553 82.6585 74.9645 82.5863 74.6924 82.4342C74.4203 82.2821 74.1893 82.0532 73.9995 81.7475L72.7317 79.7064L73.3973 79.2931L74.6467 81.3046C74.7661 81.4969 74.9022 81.6446 75.0551 81.7477C75.2099 81.8429 75.3743 81.8877 75.5485 81.882C75.7226 81.8763 75.8959 81.8199 76.0685 81.7128C76.3298 81.5505 76.4839 81.342 76.5307 81.0875C76.5745 80.828 76.5061 80.5528 76.3254 80.2619L75.0761 78.2504L75.7416 77.837L77.0094 79.8781C77.1992 80.1838 77.302 80.4923 77.3177 80.8036C77.3335 81.115 77.2693 81.4076 77.1252 81.6816C76.9829 81.9476 76.7614 82.174 76.4607 82.3607ZM80.7102 79.7214C80.444 79.8867 80.1687 79.9825 79.8844 80.0088C79.602 80.0271 79.3354 79.9774 79.0848 79.8598C78.8341 79.7422 78.6233 79.5623 78.4523 79.3201L77.7955 78.2625C77.6511 77.997 77.5832 77.7283 77.592 77.4564C77.6026 77.1765 77.6802 76.9165 77.8249 76.6763C77.9714 76.4282 78.1753 76.223 78.4366 76.0607C78.757 75.8617 79.096 75.7639 79.4534 75.7673C79.8158 75.7677 80.1566 75.8601 80.476 76.0443C80.7954 76.2285 81.0623 76.4932 81.2766 76.8383C81.491 77.1834 81.6099 77.54 81.6335 77.9079C81.6571 78.2759 81.5887 78.6223 81.4285 78.9473C81.2701 79.2643 81.0307 79.5223 80.7102 79.7214ZM80.2089 79.1617C80.4307 79.0239 80.5933 78.8512 80.6966 78.6435C80.8 78.4359 80.8458 78.2127 80.8342 77.9739C80.8195 77.7303 80.7386 77.4901 80.5917 77.2535C80.4477 77.0218 80.2698 76.8453 80.0579 76.7241C79.846 76.603 79.6256 76.5451 79.3968 76.5506C79.1648 76.5512 78.9404 76.6189 78.7235 76.7536C78.5016 76.8914 78.339 77.0641 78.2357 77.2718C78.1293 77.4745 78.0859 77.6961 78.1056 77.9367C78.1252 78.1773 78.2085 78.416 78.3555 78.6526C78.4994 78.8843 78.6724 79.0638 78.8744 79.1911C79.0783 79.3104 79.2962 79.3698 79.5282 79.3692C79.765 79.3656 79.9919 79.2964 80.2089 79.1617ZM78.8155 80.7957L75.5359 75.5155L76.2015 75.1021L77.8321 77.7274L78.2346 78.656L78.8931 79.4357L79.481 80.3823L78.8155 80.7957ZM83.1271 78.1177L80.9454 74.605L81.611 74.1916L83.7927 77.7044L83.1271 78.1177ZM80.8418 73.6957C80.7186 73.7723 80.593 73.7956 80.4651 73.7657C80.3342 73.7309 80.2304 73.6519 80.1539 73.5286C80.0804 73.4103 80.0586 73.2872 80.0885 73.1593C80.1153 73.0265 80.1903 72.9218 80.3136 72.8453C80.4369 72.7687 80.5639 72.7478 80.6949 72.7827C80.8228 72.8126 80.9235 72.8867 80.9969 73.005C81.0735 73.1282 81.0984 73.2563 81.0715 73.3891C81.0416 73.517 80.9651 73.6192 80.8418 73.6957Z" fill="#B9B9B9"/>
<path d="M41.1978 75.9776L37.9826 70.8008L38.8331 70.2726L42.0483 75.4493L41.1978 75.9776ZM40.4041 73.3961L39.9218 72.6196L42.5545 70.9844L43.0368 71.7609L40.4041 73.3961ZM39.0491 71.2145L38.5668 70.438L41.3253 68.7247L41.8076 69.5012L39.0491 71.2145ZM46.8335 72.5797C46.4785 72.8002 46.1091 72.9204 45.7251 72.9402C45.3431 72.952 44.981 72.8695 44.6388 72.6926C44.3015 72.5126 44.0242 72.2476 43.8068 71.8976C43.5894 71.5475 43.4763 71.1839 43.4675 70.8068C43.4557 70.4247 43.5373 70.0666 43.7123 69.7324C43.8923 69.3952 44.1524 69.1209 44.4925 68.9096C44.8229 68.7045 45.1612 68.6002 45.5076 68.5969C45.8589 68.5905 46.1887 68.676 46.497 68.8534C46.8103 69.0278 47.0726 69.2851 47.2838 69.6253C47.3206 69.6844 47.3539 69.7491 47.3839 69.8193C47.4157 69.8816 47.4472 69.9543 47.4783 70.0374L44.5646 71.8471L44.1512 71.1815L46.6434 69.6336L46.5055 70.0882C46.361 69.8774 46.2057 69.721 46.0399 69.619C45.8741 69.517 45.6977 69.4695 45.5106 69.4763C45.3285 69.4801 45.1389 69.5433 44.9417 69.6658C44.7346 69.7944 44.5822 69.9505 44.4845 70.1342C44.3868 70.3178 44.3465 70.5171 44.3638 70.7318C44.3779 70.9416 44.4539 71.1575 44.5917 71.3793C44.7295 71.6012 44.8948 71.7684 45.0877 71.8809C45.2806 71.9934 45.4874 72.046 45.7083 72.0386C45.9261 72.0263 46.141 71.9543 46.353 71.8226C46.5354 71.7093 46.6832 71.5732 46.7962 71.4141C46.9141 71.2521 46.9891 71.0757 47.021 70.8851L47.8648 71.0886C47.8178 71.3979 47.7032 71.6809 47.521 71.9376C47.3388 72.1942 47.1096 72.4083 46.8335 72.5797ZM50.7839 70.1261C50.429 70.3466 50.0595 70.4668 49.6756 70.4866C49.2935 70.4985 48.9314 70.4159 48.5892 70.239C48.252 70.059 47.9746 69.794 47.7572 69.444C47.5398 69.0939 47.4267 68.7303 47.4179 68.3532C47.4061 67.9711 47.4877 67.613 47.6627 67.2788C47.8427 66.9416 48.1028 66.6673 48.443 66.456C48.7733 66.2509 49.1116 66.1466 49.458 66.1433C49.8093 66.1369 50.1391 66.2224 50.4474 66.3999C50.7607 66.5742 51.023 66.8315 51.2343 67.1717C51.271 67.2308 51.3044 67.2955 51.3343 67.3658C51.3661 67.428 51.3976 67.5007 51.4287 67.5838L48.515 69.3935L48.1016 68.7279L50.5938 67.18L50.456 67.6346C50.3114 67.4238 50.1562 67.2674 49.9904 67.1654C49.8245 67.0634 49.6481 67.0159 49.4611 67.0227C49.279 67.0265 49.0893 67.0897 48.8921 67.2122C48.685 67.3408 48.5326 67.4969 48.4349 67.6806C48.3372 67.8642 48.297 68.0635 48.3142 68.2782C48.3284 68.488 48.4043 68.7039 48.5421 68.9257C48.6799 69.1476 48.8453 69.3148 49.0381 69.4273C49.231 69.5398 49.4378 69.5924 49.6587 69.585C49.8765 69.5727 50.0914 69.5007 50.3034 69.369C50.4859 69.2557 50.6336 69.1196 50.7466 68.9605C50.8646 68.7985 50.9395 68.6221 50.9714 68.4315L51.8152 68.635C51.7682 68.9443 51.6536 69.2273 51.4714 69.484C51.2892 69.7406 51.06 69.9547 50.7839 70.1261ZM54.5717 67.7736C54.2512 67.9726 53.9098 68.072 53.5474 68.0716C53.19 68.0681 52.8491 67.9758 52.5248 67.7946C52.2024 67.6054 51.934 67.3383 51.7196 66.9932C51.5022 66.6432 51.3817 66.2842 51.3582 65.9162C51.3365 65.5402 51.4033 65.1913 51.5586 64.8694C51.7158 64.5395 51.9546 64.275 52.2751 64.0759C52.5462 63.9075 52.8221 63.8182 53.1026 63.8079C53.3851 63.7896 53.6507 63.8433 53.8995 63.9689C54.1483 64.0944 54.3523 64.2854 54.5115 64.5418L55.1454 65.5623C55.3046 65.8187 55.3854 66.0862 55.3877 66.3649C55.3949 66.6406 55.3293 66.9034 55.1908 67.1534C55.0492 67.3984 54.8428 67.6052 54.5717 67.7736ZM54.2271 66.9218C54.4292 66.7963 54.5767 66.6432 54.6695 66.4626C54.7641 66.274 54.8028 66.0723 54.7856 65.8575C54.7684 65.6428 54.6939 65.4294 54.5622 65.2174C54.4306 65.0054 54.2723 64.8441 54.0874 64.7335C53.9026 64.6228 53.7062 64.5706 53.4982 64.5768C53.2921 64.575 53.088 64.6368 52.8859 64.7624C52.6887 64.8849 52.5427 65.0404 52.4481 65.229C52.3553 65.4096 52.315 65.6088 52.3274 65.8266C52.3446 66.0414 52.419 66.2548 52.5507 66.4668C52.6824 66.6788 52.8407 66.8401 53.0255 66.9507C53.2153 67.0583 53.4133 67.113 53.6193 67.1148C53.8273 67.1086 54.0299 67.0443 54.2271 66.9218ZM56.4263 66.5192L55.6128 67.0244L55.0203 66.0705L54.6234 65.1179L53.9501 64.3473L52.3057 61.6998L53.1192 61.1946L56.4263 66.5192Z" fill="#E4E4E4"/>
<g clip-path="url(#clip4_1_943)">
<rect x="129.912" y="222.816" width="92.86" height="76.8997" rx="14.5094" transform="rotate(-31.8443 129.912 222.816)" fill="#F9F9F9"/>
<path opacity="0.7" d="M243.424 192.452L203.983 216.949" stroke="#FFAA4C" stroke-width="69.8814" stroke-linecap="round"/>
<circle cx="197.878" cy="200.245" r="5.07828" transform="rotate(-31.8443 197.878 200.245)" stroke="black" stroke-width="1.45094"/>
</g>
<path d="M143.704 202.755L143.328 202.149L144.881 201.184C145.177 201.001 145.355 200.77 145.415 200.494C145.472 200.212 145.425 199.948 145.272 199.702C145.167 199.534 145.037 199.407 144.88 199.319C144.721 199.227 144.545 199.186 144.353 199.196C144.166 199.203 143.979 199.265 143.791 199.381L142.216 200.359L141.839 199.753L143.311 198.839C143.558 198.686 143.713 198.501 143.776 198.284C143.841 198.059 143.797 197.823 143.644 197.576C143.491 197.33 143.298 197.19 143.066 197.157C142.83 197.119 142.587 197.178 142.335 197.334L140.893 198.229L140.517 197.623L141.974 196.718C142.309 196.51 142.626 196.399 142.924 196.384C143.224 196.361 143.492 196.414 143.728 196.54C143.969 196.664 144.163 196.844 144.31 197.081C144.481 197.357 144.555 197.646 144.531 197.948C144.512 198.247 144.393 198.546 144.176 198.845L144.097 198.586C144.501 198.499 144.869 198.52 145.202 198.648C145.536 198.769 145.804 198.992 146.006 199.317C146.175 199.588 146.26 199.874 146.261 200.173C146.263 200.473 146.179 200.767 146.011 201.056C145.844 201.338 145.58 201.59 145.22 201.814L143.704 202.755ZM143.238 203.045L140.051 197.912L140.746 197.481L143.934 202.613L143.238 203.045ZM149.186 199.453C148.9 199.631 148.602 199.727 148.29 199.743C147.981 199.751 147.69 199.679 147.418 199.527C147.146 199.374 146.915 199.146 146.725 198.84L145.457 196.799L146.123 196.385L147.372 198.397C147.492 198.589 147.628 198.737 147.781 198.84C147.935 198.935 148.1 198.98 148.274 198.974C148.448 198.969 148.621 198.912 148.794 198.805C149.055 198.643 149.209 198.434 149.256 198.18C149.3 197.92 149.232 197.645 149.051 197.354L147.802 195.343L148.467 194.929L149.735 196.97C149.925 197.276 150.027 197.585 150.043 197.896C150.059 198.207 149.995 198.5 149.851 198.774C149.708 199.04 149.487 199.266 149.186 199.453ZM153.436 196.814C153.169 196.979 152.894 197.075 152.61 197.101C152.327 197.119 152.061 197.07 151.81 196.952C151.56 196.835 151.349 196.655 151.178 196.412L150.521 195.355C150.377 195.089 150.309 194.821 150.317 194.549C150.328 194.269 150.406 194.009 150.55 193.769C150.697 193.521 150.901 193.315 151.162 193.153C151.483 192.954 151.821 192.856 152.179 192.86C152.541 192.86 152.882 192.952 153.201 193.137C153.521 193.321 153.788 193.586 154.002 193.931C154.216 194.276 154.335 194.632 154.359 195C154.383 195.368 154.314 195.715 154.154 196.04C153.996 196.357 153.756 196.615 153.436 196.814ZM152.934 196.254C153.156 196.116 153.319 195.943 153.422 195.736C153.525 195.528 153.571 195.305 153.56 195.066C153.545 194.823 153.464 194.582 153.317 194.346C153.173 194.114 152.995 193.938 152.783 193.816C152.571 193.695 152.351 193.637 152.122 193.643C151.89 193.644 151.666 193.711 151.449 193.846C151.227 193.984 151.064 194.156 150.961 194.364C150.855 194.567 150.811 194.788 150.831 195.029C150.851 195.27 150.934 195.508 151.081 195.745C151.225 195.977 151.398 196.156 151.6 196.283C151.804 196.403 152.022 196.462 152.254 196.462C152.491 196.458 152.717 196.389 152.934 196.254ZM151.541 197.888L148.261 192.608L148.927 192.194L150.558 194.82L150.96 195.748L151.619 196.528L152.206 197.475L151.541 197.888ZM157.304 194.411C157.018 194.589 156.719 194.686 156.408 194.701C156.098 194.709 155.807 194.637 155.535 194.485C155.263 194.333 155.032 194.104 154.842 193.798L153.575 191.757L154.24 191.344L155.49 193.355C155.609 193.547 155.745 193.695 155.898 193.798C156.053 193.893 156.217 193.938 156.391 193.933C156.566 193.927 156.739 193.87 156.911 193.763C157.173 193.601 157.327 193.393 157.374 193.138C157.417 192.879 157.349 192.603 157.168 192.312L155.919 190.301L156.585 189.888L157.852 191.929C158.042 192.234 158.145 192.543 158.161 192.854C158.176 193.166 158.112 193.458 157.968 193.732C157.826 193.998 157.604 194.225 157.304 194.411Z" fill="#B9B9B9"/>
<rect opacity="0.7" x="63.25" y="54.9868" width="29.0188" height="7.25469" rx="3.62735" transform="rotate(-31.8443 63.25 54.9868)" fill="black"/>
<path d="M105.028 181.399L101.84 176.267L102.536 175.835L105.723 180.967L105.028 181.399ZM110.249 178.259C109.983 178.424 109.708 178.52 109.424 178.546C109.141 178.564 108.875 178.515 108.624 178.397C108.373 178.279 108.162 178.099 107.991 177.857L107.335 176.8C107.19 176.534 107.122 176.265 107.131 175.994C107.142 175.714 107.219 175.454 107.364 175.214C107.511 174.965 107.714 174.76 107.976 174.598C108.296 174.399 108.635 174.301 108.993 174.305C109.355 174.305 109.696 174.397 110.015 174.581C110.335 174.766 110.601 175.03 110.816 175.375C111.03 175.721 111.149 176.077 111.173 176.445C111.196 176.813 111.128 177.16 110.968 177.484C110.809 177.801 110.57 178.06 110.249 178.259ZM109.748 177.699C109.97 177.561 110.132 177.388 110.236 177.181C110.339 176.973 110.385 176.75 110.373 176.511C110.359 176.267 110.278 176.027 110.131 175.791C109.987 175.559 109.809 175.382 109.597 175.261C109.385 175.14 109.165 175.082 108.936 175.088C108.704 175.088 108.48 175.156 108.263 175.291C108.041 175.429 107.878 175.601 107.775 175.809C107.668 176.012 107.625 176.233 107.645 176.474C107.664 176.715 107.748 176.953 107.895 177.19C108.039 177.422 108.211 177.601 108.414 177.728C108.617 177.848 108.835 177.907 109.067 177.906C109.304 177.903 109.531 177.834 109.748 177.699ZM108.355 179.333L105.075 174.053L105.741 173.639L107.371 176.265L107.774 177.193L108.432 177.973L109.02 178.92L108.355 179.333ZM114.31 175.737C113.964 175.951 113.603 176.063 113.226 176.071C112.849 176.08 112.493 175.997 112.159 175.822C111.822 175.642 111.546 175.38 111.332 175.034C111.121 174.694 111.012 174.338 111.006 173.966C110.998 173.589 111.081 173.233 111.256 172.899C111.431 172.565 111.691 172.29 112.036 172.076C112.376 171.865 112.735 171.755 113.112 171.746C113.491 171.729 113.848 171.808 114.182 171.983C114.516 172.158 114.789 172.416 115 172.756C115.214 173.101 115.327 173.465 115.339 173.847C115.348 174.224 115.262 174.581 115.082 174.919C114.907 175.253 114.65 175.525 114.31 175.737ZM113.91 175.093C114.132 174.956 114.297 174.781 114.405 174.571C114.513 174.36 114.562 174.135 114.55 173.896C114.535 173.653 114.456 173.415 114.312 173.183C114.171 172.957 113.994 172.787 113.78 172.673C113.571 172.557 113.35 172.503 113.116 172.512C112.884 172.512 112.657 172.582 112.436 172.719C112.214 172.857 112.049 173.032 111.94 173.242C111.829 173.448 111.779 173.67 111.791 173.909C111.803 174.148 111.879 174.38 112.02 174.607C112.164 174.839 112.341 175.015 112.553 175.137C112.762 175.253 112.985 175.309 113.222 175.306C113.459 175.302 113.688 175.231 113.91 175.093ZM118.306 173.255C118.02 173.432 117.721 173.529 117.41 173.545C117.101 173.552 116.81 173.48 116.538 173.328C116.266 173.176 116.035 172.947 115.845 172.641L114.577 170.6L115.243 170.187L116.492 172.198C116.611 172.391 116.748 172.538 116.901 172.642C117.055 172.737 117.22 172.781 117.394 172.776C117.568 172.77 117.741 172.714 117.914 172.607C118.175 172.444 118.329 172.236 118.376 171.981C118.42 171.722 118.351 171.447 118.171 171.156L116.921 169.144L117.587 168.731L118.855 170.772C119.045 171.078 119.147 171.386 119.163 171.697C119.179 172.009 119.115 172.301 118.971 172.575C118.828 172.841 118.607 173.068 118.306 173.255ZM123.078 172.33C122.718 172.554 122.356 172.686 121.992 172.728C121.634 172.766 121.295 172.717 120.978 172.579L121.136 171.876C121.392 171.97 121.648 172.002 121.903 171.974C122.161 171.95 122.426 171.854 122.697 171.685C123.057 171.462 123.281 171.189 123.369 170.868C123.464 170.549 123.413 170.23 123.214 169.909L122.672 169.037L122.299 168.172L121.693 167.461L121.119 166.537L121.785 166.124L123.879 169.496C124.087 169.831 124.191 170.173 124.189 170.523C124.193 170.869 124.098 171.201 123.906 171.519C123.719 171.833 123.443 172.104 123.078 172.33ZM122.081 170.726C121.76 170.925 121.425 171.027 121.073 171.034C120.727 171.037 120.397 170.951 120.084 170.777C119.768 170.598 119.505 170.341 119.297 170.005C119.089 169.67 118.978 169.326 118.963 168.973C118.946 168.615 119.015 168.281 119.172 167.972C119.33 167.655 119.57 167.397 119.89 167.198C120.166 167.026 120.444 166.929 120.723 166.906C121.003 166.883 121.265 166.931 121.511 167.052C121.758 167.165 121.968 167.349 122.14 167.604L122.719 168.536C122.864 168.801 122.933 169.072 122.927 169.349C122.924 169.618 122.849 169.873 122.705 170.113C122.56 170.353 122.352 170.557 122.081 170.726ZM121.824 170.014C122.041 169.879 122.201 169.715 122.306 169.52C122.415 169.322 122.462 169.112 122.447 168.889C122.428 168.662 122.349 168.434 122.208 168.208C122.067 167.981 121.898 167.813 121.7 167.703C121.504 167.586 121.296 167.531 121.075 167.538C120.851 167.541 120.628 167.611 120.406 167.748C120.184 167.886 120.02 168.057 119.914 168.259C119.804 168.457 119.754 168.673 119.762 168.907C119.773 169.132 119.847 169.356 119.985 169.578C120.123 169.8 120.292 169.968 120.493 170.082C120.699 170.194 120.916 170.247 121.145 170.241C121.375 170.228 121.602 170.152 121.824 170.014ZM127.428 167.486L126.156 165.438C125.991 165.172 125.771 165.004 125.496 164.936C125.221 164.867 124.95 164.916 124.684 165.081C124.507 165.191 124.373 165.329 124.284 165.493C124.195 165.658 124.154 165.834 124.161 166.021C124.168 166.208 124.226 166.39 124.337 166.568L123.967 166.582C123.801 166.316 123.713 166.043 123.703 165.762C123.693 165.482 123.757 165.216 123.896 164.966C124.031 164.711 124.232 164.501 124.498 164.336C124.764 164.171 125.035 164.084 125.311 164.077C125.591 164.067 125.857 164.131 126.107 164.269C126.357 164.408 126.567 164.615 126.739 164.891L128.094 167.073L127.428 167.486ZM124.943 169.03L121.664 163.749L122.329 163.336L125.609 168.616L124.943 169.03ZM129.492 166.205L126.396 161.22L127.061 160.807L130.157 165.791L129.492 166.205ZM126.821 163.836L126.444 163.229L128.841 161.741L129.217 162.348L126.821 163.836ZM133.213 163.894L131.031 160.381L131.696 159.967L133.878 163.48L133.213 163.894ZM135.587 162.419L134.268 160.297C134.106 160.035 133.898 159.881 133.643 159.835C133.39 159.78 133.143 159.827 132.902 159.977C132.739 160.078 132.615 160.203 132.53 160.352C132.444 160.501 132.4 160.661 132.398 160.833C132.396 161.005 132.448 161.178 132.555 161.35L132.199 161.387C132.034 161.121 131.946 160.854 131.937 160.586C131.933 160.316 131.999 160.063 132.133 159.829C132.265 159.59 132.457 159.393 132.708 159.237C132.955 159.084 133.21 159 133.475 158.986C133.744 158.969 133.997 159.024 134.233 159.151C134.474 159.274 134.678 159.472 134.847 159.743L136.252 162.006L135.587 162.419ZM137.96 160.945L136.642 158.822C136.48 158.561 136.271 158.407 136.017 158.36C135.764 158.305 135.52 158.351 135.283 158.498C135.12 158.599 134.994 158.726 134.903 158.877C134.818 159.026 134.774 159.187 134.772 159.359C134.77 159.531 134.822 159.703 134.929 159.876L134.469 159.977C134.316 159.697 134.243 159.421 134.252 159.149C134.263 158.869 134.338 158.61 134.478 158.373C134.614 158.131 134.806 157.934 135.052 157.781C135.309 157.621 135.572 157.533 135.841 157.516C136.111 157.499 136.366 157.552 136.607 157.676C136.852 157.797 137.061 157.995 137.232 158.271L138.633 160.527L137.96 160.945ZM140.711 159.277L136.988 156.681L137.727 156.222L140.581 158.292L140.344 158.439L139.813 154.927L140.552 154.467L141.11 159.029L140.711 159.277ZM140.601 161.344L140.318 158.579L141.11 159.029L141.341 160.885L140.601 161.344ZM144.37 157.066C144.173 157.189 143.971 157.28 143.762 157.341C143.556 157.394 143.35 157.42 143.144 157.418C142.935 157.411 142.735 157.375 142.544 157.309L142.706 156.614C142.932 156.692 143.154 156.718 143.37 156.693C143.584 156.663 143.794 156.584 144.001 156.455C144.208 156.326 144.347 156.192 144.418 156.053C144.485 155.909 144.479 155.772 144.399 155.644C144.32 155.516 144.212 155.446 144.075 155.436C143.94 155.417 143.788 155.43 143.617 155.474C143.444 155.513 143.262 155.562 143.072 155.618C142.883 155.667 142.694 155.699 142.506 155.714C142.317 155.728 142.136 155.701 141.962 155.631C141.794 155.558 141.644 155.415 141.512 155.203C141.381 154.991 141.319 154.777 141.328 154.559C141.333 154.337 141.401 154.128 141.532 153.931C141.667 153.731 141.865 153.549 142.126 153.387C142.402 153.216 142.677 153.113 142.95 153.08C143.226 153.039 143.492 153.072 143.749 153.178L143.587 153.874C143.409 153.807 143.224 153.785 143.033 153.808C142.847 153.827 142.663 153.894 142.481 154.007C142.289 154.127 142.162 154.253 142.101 154.386C142.043 154.512 142.05 154.633 142.123 154.752C142.197 154.87 142.298 154.934 142.427 154.943C142.555 154.952 142.705 154.934 142.875 154.89C143.051 154.842 143.233 154.794 143.421 154.745C143.606 154.692 143.795 154.66 143.987 154.65C144.179 154.64 144.361 154.674 144.532 154.752C144.708 154.827 144.864 154.973 144.999 155.19C145.204 155.52 145.248 155.855 145.131 156.194C145.018 156.53 144.765 156.821 144.37 157.066ZM148.037 154.789C147.687 155.006 147.322 155.123 146.943 155.14C146.561 155.152 146.203 155.07 145.869 154.895C145.535 154.72 145.259 154.458 145.041 154.108C144.827 153.763 144.713 153.403 144.699 153.029C144.691 152.652 144.773 152.3 144.946 151.974C145.121 151.64 145.379 151.367 145.719 151.156C146.044 150.954 146.376 150.85 146.714 150.845C147.058 150.837 147.38 150.92 147.68 151.096C147.985 151.268 148.24 151.52 148.445 151.85C148.476 151.899 148.507 151.955 148.539 152.017C148.568 152.075 148.598 152.145 148.629 152.228L145.663 154.07L145.319 153.515L147.93 151.894L147.819 152.26C147.672 152.023 147.506 151.85 147.321 151.739C147.133 151.623 146.935 151.569 146.727 151.575C146.516 151.576 146.302 151.644 146.085 151.779C145.858 151.92 145.689 152.093 145.578 152.299C145.467 152.505 145.419 152.725 145.436 152.961C145.452 153.197 145.536 153.435 145.686 153.677C145.839 153.923 146.023 154.11 146.238 154.236C146.45 154.357 146.679 154.413 146.926 154.403C147.17 154.388 147.41 154.307 147.646 154.16C147.844 154.038 148.002 153.892 148.122 153.721C148.247 153.548 148.325 153.356 148.358 153.144L149.058 153.314C149.013 153.616 148.899 153.895 148.717 154.151C148.54 154.405 148.313 154.617 148.037 154.789ZM150.329 153.263L147.049 147.983L147.715 147.569L150.994 152.85L150.329 153.263ZM152.471 151.932L149.963 147.895C149.801 147.633 149.717 147.371 149.711 147.109C149.702 146.841 149.76 146.589 149.887 146.353C150.019 146.114 150.218 145.912 150.484 145.747C150.686 145.621 150.883 145.547 151.073 145.524C151.264 145.501 151.463 145.518 151.668 145.575L151.499 146.275C151.392 146.246 151.288 146.238 151.188 146.253C151.084 146.262 150.976 146.302 150.862 146.373C150.65 146.504 150.524 146.668 150.482 146.865C150.445 147.059 150.494 147.264 150.629 147.481L153.137 151.519L152.471 151.932ZM149.801 149.563L149.424 148.957L152.071 147.313L152.448 147.919L149.801 149.563ZM112.253 189.963C111.933 190.162 111.593 190.264 111.234 190.268C110.871 190.268 110.528 190.177 110.204 189.996C109.884 189.812 109.617 189.547 109.403 189.202C109.189 188.857 109.07 188.5 109.046 188.132C109.027 187.761 109.096 187.415 109.251 187.093C109.411 186.768 109.654 186.504 109.98 186.302C110.246 186.137 110.518 186.047 110.795 186.031C111.075 186.008 111.34 186.055 111.59 186.173C111.838 186.286 112.049 186.466 112.223 186.713L112.88 187.77C113.021 188.031 113.089 188.3 113.083 188.576C113.082 188.85 113.011 189.11 112.87 189.355C112.73 189.592 112.524 189.795 112.253 189.963ZM111.974 189.265C112.304 189.06 112.501 188.784 112.566 188.437C112.627 188.084 112.549 187.733 112.332 187.383C112.181 187.141 112.005 186.961 111.801 186.842C111.599 186.714 111.383 186.654 111.154 186.659C110.922 186.66 110.695 186.729 110.474 186.867C110.252 187.004 110.087 187.179 109.978 187.389C109.875 187.597 109.831 187.823 109.845 188.066C109.862 188.302 109.942 188.536 110.086 188.767C110.233 189.004 110.41 189.184 110.617 189.309C110.826 189.425 111.049 189.481 111.286 189.478C111.523 189.474 111.752 189.403 111.974 189.265ZM113.376 189.163L112.788 188.217L112.381 187.281L111.727 186.508L111.194 185.651L111.867 185.233L114.049 188.745L113.376 189.163ZM117.503 186.6L116.23 184.552C116.065 184.285 115.845 184.118 115.57 184.05C115.295 183.981 115.025 184.03 114.758 184.195C114.581 184.305 114.448 184.443 114.359 184.607C114.27 184.772 114.228 184.948 114.235 185.135C114.242 185.322 114.301 185.504 114.411 185.682L114.041 185.696C113.876 185.43 113.788 185.157 113.777 184.876C113.767 184.595 113.831 184.33 113.97 184.08C114.105 183.825 114.306 183.615 114.572 183.45C114.839 183.284 115.114 183.206 115.399 183.213C115.689 183.218 115.96 183.292 116.213 183.435C116.463 183.574 116.663 183.764 116.813 184.005L118.168 186.187L117.503 186.6ZM115.018 188.143L112.836 184.631L113.502 184.217L115.683 187.73L115.018 188.143ZM122.28 183.735C121.93 183.953 121.566 184.07 121.187 184.086C120.805 184.098 120.447 184.017 120.112 183.842C119.778 183.667 119.503 183.404 119.285 183.054C119.071 182.709 118.957 182.349 118.943 181.975C118.934 181.598 119.016 181.246 119.19 180.92C119.365 180.586 119.622 180.313 119.962 180.102C120.288 179.9 120.62 179.796 120.958 179.791C121.301 179.783 121.623 179.866 121.924 180.042C122.229 180.214 122.484 180.466 122.689 180.796C122.72 180.846 122.751 180.901 122.783 180.963C122.812 181.021 122.842 181.091 122.873 181.174L119.907 183.016L119.563 182.461L122.173 180.84L122.062 181.206C121.915 180.969 121.749 180.796 121.565 180.685C121.377 180.57 121.179 180.515 120.971 180.521C120.76 180.522 120.546 180.59 120.329 180.725C120.102 180.866 119.933 181.039 119.822 181.245C119.71 181.451 119.663 181.671 119.68 181.907C119.696 182.143 119.779 182.381 119.93 182.623C120.083 182.869 120.267 183.056 120.482 183.182C120.694 183.303 120.923 183.359 121.17 183.349C121.413 183.334 121.653 183.253 121.89 183.106C122.087 182.984 122.246 182.838 122.366 182.668C122.49 182.495 122.569 182.302 122.602 182.091L123.302 182.261C123.256 182.562 123.143 182.841 122.96 183.098C122.783 183.351 122.557 183.564 122.28 183.735ZM124.572 182.209L121.293 176.929L121.958 176.515L125.238 181.796L124.572 182.209ZM127.885 180.254C127.535 180.472 127.17 180.589 126.791 180.606C126.409 180.617 126.051 180.536 125.717 180.361C125.383 180.186 125.107 179.923 124.889 179.573C124.675 179.228 124.561 178.868 124.547 178.494C124.538 178.117 124.621 177.766 124.794 177.439C124.969 177.105 125.227 176.832 125.567 176.621C125.892 176.419 126.224 176.315 126.562 176.31C126.906 176.302 127.227 176.386 127.528 176.561C127.833 176.734 128.088 176.985 128.293 177.315C128.324 177.365 128.355 177.42 128.387 177.483C128.416 177.54 128.446 177.61 128.477 177.693L125.511 179.535L125.167 178.981L127.777 177.359L127.667 177.725C127.52 177.489 127.354 177.315 127.169 177.204C126.981 177.089 126.783 177.034 126.575 177.04C126.364 177.041 126.15 177.109 125.933 177.244C125.706 177.385 125.537 177.558 125.426 177.764C125.315 177.97 125.267 178.191 125.284 178.426C125.3 178.662 125.384 178.901 125.534 179.142C125.687 179.389 125.871 179.575 126.086 179.701C126.298 179.822 126.527 179.878 126.774 179.868C127.017 179.854 127.258 179.773 127.494 179.626C127.691 179.503 127.85 179.357 127.97 179.187C128.095 179.014 128.173 178.821 128.206 178.61L128.906 178.78C128.861 179.081 128.747 179.36 128.565 179.617C128.387 179.87 128.161 180.083 127.885 180.254ZM131.827 177.806C131.482 178.02 131.119 178.133 130.737 178.145C130.359 178.154 130.004 178.07 129.67 177.895C129.337 177.712 129.066 177.451 128.854 177.111C128.64 176.765 128.526 176.406 128.512 176.032C128.503 175.655 128.588 175.301 128.766 174.972C128.946 174.635 129.209 174.359 129.554 174.145C129.825 173.976 130.108 173.872 130.405 173.832C130.697 173.786 130.987 173.808 131.275 173.896L131.106 174.615C130.918 174.554 130.725 174.541 130.528 174.575C130.332 174.601 130.141 174.672 129.953 174.788C129.731 174.926 129.566 175.1 129.458 175.311C129.347 175.517 129.297 175.739 129.309 175.978C129.32 176.216 129.398 176.452 129.542 176.683C129.686 176.915 129.862 177.089 130.071 177.205C130.28 177.322 130.503 177.378 130.74 177.374C130.977 177.371 131.206 177.3 131.428 177.162C131.615 177.046 131.765 176.908 131.878 176.749C131.993 176.582 132.068 176.399 132.101 176.201L132.813 176.373C132.767 176.662 132.658 176.931 132.485 177.182C132.318 177.429 132.099 177.637 131.827 177.806ZM134.291 176.173L131.196 171.188L131.861 170.775L134.957 175.759L134.291 176.173ZM131.621 173.804L131.244 173.197L133.64 171.709L134.017 172.316L131.621 173.804ZM136.474 174.817L134.292 171.304L134.958 170.891L137.14 174.404L136.474 174.817ZM135.895 172.399L135.575 172.445C135.296 171.996 135.178 171.574 135.219 171.179C135.261 170.785 135.477 170.466 135.866 170.224C136.044 170.114 136.224 170.047 136.406 170.022C136.586 169.992 136.782 170.011 136.994 170.077L136.838 170.799C136.715 170.766 136.599 170.76 136.488 170.781C136.378 170.801 136.264 170.848 136.146 170.922C135.899 171.075 135.746 171.279 135.686 171.535C135.626 171.791 135.696 172.079 135.895 172.399ZM139.45 172.969L137.268 169.456L137.934 169.043L140.115 172.555L139.45 172.969ZM137.165 168.547C137.041 168.623 136.916 168.647 136.788 168.617C136.657 168.582 136.553 168.503 136.477 168.38C136.403 168.261 136.381 168.138 136.411 168.01C136.438 167.878 136.513 167.773 136.636 167.696C136.76 167.62 136.887 167.599 137.018 167.634C137.145 167.664 137.246 167.738 137.32 167.856C137.396 167.979 137.421 168.107 137.394 168.24C137.364 168.368 137.288 168.47 137.165 168.547ZM142.747 171.023C142.402 171.238 142.038 171.351 141.656 171.363C141.279 171.371 140.923 171.288 140.589 171.113C140.257 170.93 139.985 170.669 139.774 170.328C139.559 169.983 139.445 169.624 139.432 169.25C139.423 168.873 139.508 168.519 139.686 168.19C139.866 167.853 140.128 167.577 140.473 167.363C140.745 167.194 141.028 167.09 141.324 167.05C141.617 167.004 141.907 167.026 142.194 167.114L142.026 167.833C141.838 167.772 141.645 167.759 141.448 167.793C141.252 167.819 141.06 167.89 140.873 168.006C140.651 168.144 140.486 168.318 140.378 168.529C140.266 168.735 140.217 168.957 140.228 169.196C140.24 169.434 140.318 169.67 140.462 169.901C140.606 170.133 140.782 170.307 140.991 170.423C141.2 170.539 141.422 170.596 141.659 170.592C141.896 170.589 142.126 170.518 142.347 170.38C142.535 170.264 142.685 170.126 142.798 169.967C142.913 169.8 142.987 169.617 143.021 169.418L143.733 169.591C143.687 169.88 143.577 170.149 143.405 170.4C143.237 170.647 143.018 170.855 142.747 171.023ZM147.415 168.124C147.218 168.246 147.016 168.338 146.807 168.399C146.601 168.452 146.395 168.477 146.189 168.476C145.98 168.469 145.78 168.433 145.588 168.367L145.751 167.672C145.977 167.75 146.199 167.776 146.415 167.751C146.629 167.721 146.839 167.641 147.046 167.513C147.253 167.384 147.392 167.25 147.463 167.111C147.53 166.966 147.524 166.83 147.444 166.702C147.365 166.574 147.257 166.504 147.12 166.493C146.985 166.475 146.833 166.487 146.662 166.532C146.489 166.571 146.307 166.619 146.116 166.676C145.928 166.725 145.739 166.756 145.551 166.771C145.362 166.786 145.181 166.759 145.007 166.689C144.839 166.616 144.689 166.473 144.557 166.261C144.426 166.049 144.364 165.834 144.373 165.617C144.378 165.395 144.446 165.186 144.576 164.989C144.712 164.788 144.91 164.607 145.171 164.445C145.447 164.273 145.722 164.171 145.995 164.138C146.27 164.097 146.537 164.13 146.794 164.236L146.632 164.932C146.453 164.865 146.269 164.843 146.078 164.865C145.892 164.885 145.708 164.952 145.526 165.065C145.334 165.184 145.207 165.311 145.146 165.444C145.088 165.569 145.095 165.691 145.168 165.81C145.242 165.928 145.343 165.992 145.471 166.001C145.6 166.01 145.75 165.992 145.92 165.947C146.096 165.9 146.278 165.852 146.466 165.803C146.651 165.75 146.84 165.718 147.032 165.708C147.224 165.698 147.406 165.732 147.577 165.81C147.753 165.885 147.909 166.031 148.044 166.248C148.249 166.578 148.293 166.913 148.175 167.252C148.063 167.588 147.81 167.879 147.415 168.124ZM151.059 165.861C150.714 166.075 150.351 166.188 149.969 166.2C149.592 166.209 149.236 166.125 148.902 165.95C148.569 165.767 148.298 165.506 148.086 165.166C147.872 164.82 147.758 164.461 147.744 164.087C147.735 163.71 147.82 163.356 147.998 163.027C148.178 162.69 148.441 162.414 148.786 162.2C149.057 162.031 149.341 161.927 149.637 161.887C149.93 161.841 150.22 161.863 150.507 161.951L150.339 162.67C150.15 162.609 149.958 162.596 149.76 162.63C149.564 162.656 149.373 162.727 149.185 162.843C148.964 162.981 148.799 163.155 148.69 163.366C148.579 163.572 148.529 163.794 148.541 164.033C148.552 164.271 148.63 164.507 148.774 164.738C148.918 164.97 149.094 165.144 149.303 165.26C149.512 165.377 149.735 165.433 149.972 165.429C150.209 165.426 150.438 165.355 150.66 165.217C150.847 165.101 150.997 164.963 151.11 164.804C151.225 164.637 151.3 164.454 151.333 164.256L152.045 164.428C151.999 164.717 151.89 164.986 151.717 165.237C151.55 165.484 151.331 165.692 151.059 165.861ZM154.605 163.658C154.26 163.872 153.899 163.984 153.522 163.993C153.145 164.002 152.789 163.918 152.455 163.743C152.118 163.563 151.842 163.301 151.628 162.956C151.416 162.616 151.308 162.259 151.302 161.887C151.293 161.51 151.377 161.154 151.552 160.82C151.727 160.486 151.987 160.212 152.332 159.997C152.672 159.786 153.031 159.676 153.408 159.667C153.787 159.651 154.143 159.73 154.478 159.905C154.812 160.08 155.085 160.337 155.296 160.678C155.51 161.023 155.623 161.386 155.635 161.768C155.644 162.146 155.558 162.503 155.378 162.84C155.203 163.174 154.946 163.447 154.605 163.658ZM154.206 163.015C154.428 162.877 154.593 162.703 154.701 162.492C154.809 162.281 154.858 162.057 154.846 161.818C154.831 161.574 154.752 161.336 154.608 161.105C154.467 160.878 154.29 160.708 154.076 160.595C153.867 160.479 153.646 160.425 153.412 160.433C153.18 160.434 152.953 160.503 152.731 160.641C152.51 160.779 152.345 160.953 152.236 161.164C152.125 161.369 152.075 161.592 152.087 161.83C152.098 162.069 152.175 162.302 152.315 162.529C152.459 162.76 152.637 162.937 152.849 163.058C153.058 163.174 153.281 163.231 153.518 163.227C153.755 163.223 153.984 163.153 154.206 163.015ZM158.794 161.057C158.449 161.271 158.088 161.382 157.711 161.391C157.334 161.4 156.978 161.317 156.644 161.142C156.307 160.962 156.031 160.699 155.816 160.354C155.605 160.014 155.497 159.658 155.491 159.286C155.482 158.908 155.565 158.553 155.74 158.219C155.915 157.884 156.175 157.61 156.521 157.396C156.861 157.185 157.219 157.075 157.597 157.066C157.976 157.049 158.332 157.128 158.666 157.303C159.001 157.478 159.273 157.736 159.485 158.076C159.699 158.421 159.812 158.785 159.824 159.167C159.833 159.544 159.747 159.901 159.567 160.238C159.392 160.572 159.134 160.845 158.794 161.057ZM158.395 160.413C158.616 160.275 158.782 160.101 158.89 159.89C158.998 159.68 159.046 159.455 159.035 159.216C159.02 158.973 158.941 158.735 158.797 158.503C158.656 158.276 158.479 158.106 158.265 157.993C158.056 157.877 157.835 157.823 157.601 157.832C157.369 157.832 157.142 157.901 156.92 158.039C156.698 158.177 156.533 158.351 156.425 158.562C156.314 158.768 156.264 158.99 156.276 159.229C156.287 159.467 156.363 159.7 156.504 159.927C156.648 160.159 156.826 160.335 157.038 160.456C157.247 160.573 157.47 160.629 157.707 160.625C157.943 160.622 158.173 160.551 158.395 160.413ZM161.764 159.11L158.668 154.125L159.334 153.712L162.429 158.696L161.764 159.11ZM159.093 156.741L158.717 156.134L161.113 154.646L161.489 155.252L159.093 156.741ZM165.511 156.885C165.161 157.102 164.797 157.219 164.418 157.236C164.036 157.248 163.677 157.166 163.343 156.991C163.009 156.816 162.733 156.554 162.516 156.203C162.301 155.858 162.187 155.499 162.174 155.125C162.165 154.748 162.247 154.396 162.42 154.07C162.595 153.736 162.853 153.463 163.193 153.252C163.519 153.049 163.85 152.946 164.189 152.941C164.532 152.932 164.854 153.016 165.154 153.192C165.46 153.364 165.715 153.615 165.92 153.946C165.951 153.995 165.982 154.051 166.014 154.113C166.042 154.17 166.072 154.241 166.103 154.324L163.138 156.166L162.793 155.611L165.404 153.99L165.293 154.356C165.146 154.119 164.98 153.945 164.795 153.835C164.607 153.719 164.409 153.664 164.202 153.671C163.991 153.672 163.777 153.74 163.56 153.875C163.333 154.015 163.164 154.189 163.052 154.394C162.941 154.6 162.894 154.821 162.91 155.057C162.927 155.292 163.01 155.531 163.16 155.773C163.313 156.019 163.497 156.205 163.712 156.331C163.924 156.453 164.154 156.508 164.4 156.499C164.644 156.484 164.884 156.403 165.121 156.256C165.318 156.134 165.476 155.987 165.596 155.817C165.721 155.644 165.8 155.452 165.832 155.24L166.532 155.41C166.487 155.711 166.373 155.99 166.191 156.247C166.014 156.501 165.787 156.713 165.511 156.885ZM167.803 155.359L165.621 151.846L166.287 151.432L168.469 154.945L167.803 155.359ZM167.224 152.941L166.904 152.986C166.625 152.538 166.507 152.116 166.548 151.721C166.59 151.326 166.806 151.008 167.195 150.766C167.373 150.656 167.553 150.588 167.735 150.564C167.915 150.534 168.111 150.552 168.323 150.619L168.167 151.341C168.044 151.308 167.927 151.302 167.817 151.322C167.707 151.343 167.593 151.39 167.475 151.463C167.228 151.617 167.075 151.821 167.015 152.077C166.955 152.333 167.025 152.621 167.224 152.941Z" fill="#B9B9B9"/>
<path d="M110.47 26.5128L113.532 31.443" stroke="#E4E4E4" stroke-width="1.0882" stroke-linecap="round" stroke-linejoin="round"/>
<path d="M109.536 30.509L114.466 27.4469" stroke="#E4E4E4" stroke-width="1.0882" stroke-linecap="round" stroke-linejoin="round"/>
</g>
<g opacity="0.7" clip-path="url(#clip5_1_943)">
<g clip-path="url(#clip6_1_943)">
<path d="M201.693 48.7042C201.696 49.0273 201.597 49.3432 201.412 49.6079C201.227 49.8726 200.964 50.073 200.659 50.1814L194.367 52.466L192.082 58.7586C191.97 59.0601 191.769 59.3202 191.505 59.5039C191.24 59.6875 190.927 59.7859 190.605 59.7859C190.283 59.7859 189.969 59.6875 189.705 59.5039C189.441 59.3202 189.24 59.0601 189.128 58.7586L186.843 52.466L180.551 50.1814C180.249 50.0695 179.989 49.8679 179.805 49.6039C179.622 49.3398 179.523 49.0259 179.523 48.7042C179.523 48.3826 179.622 48.0687 179.805 47.8046C179.989 47.5406 180.249 47.339 180.551 47.2271L186.843 44.9425L189.128 38.6499C189.24 38.3483 189.441 38.0883 189.705 37.9046C189.969 37.721 190.283 37.6226 190.605 37.6226C190.927 37.6226 191.24 37.721 191.505 37.9046C191.769 38.0883 191.97 38.3483 192.082 38.6499L194.367 44.9425L200.659 47.2271C200.964 47.3355 201.227 47.5359 201.412 47.8006C201.597 48.0653 201.696 48.3811 201.693 48.7042Z" fill="#FFAA4C"/>
</g>
</g>
<g opacity="0.7" clip-path="url(#clip7_1_943)">
<path d="M214.519 26.0801C214.521 26.2872 214.458 26.4896 214.339 26.6593C214.22 26.829 214.051 26.9575 213.856 27.0269L209.823 28.4914L208.358 32.5252C208.286 32.7185 208.157 32.8852 207.988 33.0029C207.819 33.1206 207.617 33.1837 207.411 33.1837C207.205 33.1837 207.004 33.1206 206.834 33.0029C206.665 32.8852 206.536 32.7185 206.464 32.5252L205 28.4914L200.966 27.0269C200.773 26.9552 200.606 26.826 200.488 26.6567C200.371 26.4875 200.307 26.2862 200.307 26.0801C200.307 25.8739 200.371 25.6726 200.488 25.5034C200.606 25.3341 200.773 25.2049 200.966 25.1332L205 23.6687L206.464 19.6349C206.536 19.4417 206.665 19.275 206.834 19.1572C207.004 19.0395 207.205 18.9764 207.411 18.9764C207.617 18.9764 207.819 19.0395 207.988 19.1572C208.157 19.275 208.286 19.4417 208.358 19.6349L209.823 23.6687L213.856 25.1332C214.051 25.2026 214.22 25.3311 214.339 25.5008C214.458 25.6705 214.521 25.8729 214.519 26.0801Z" fill="#FFAA4C"/>
</g>
</g>
<defs>
<clipPath id="clip0_1_943">
<rect width="343" height="193" fill="white"/>
</clipPath>
<clipPath id="clip1_1_943">
<rect x="24.9951" y="67.6447" width="107.369" height="222.719" rx="18.1367" transform="rotate(-31.8443 24.9951 67.6447)" fill="white"/>
</clipPath>
<clipPath id="clip2_1_943">
<rect x="57.1863" y="105.724" width="92.86" height="76.8997" rx="14.5094" transform="rotate(-31.8443 57.1863 105.724)" fill="white"/>
</clipPath>
<clipPath id="clip3_1_943">
<rect x="46.0859" y="87.8517" width="17.4113" height="17.4113" rx="8.70563" transform="rotate(-31.8443 46.0859 87.8517)" fill="white"/>
</clipPath>
<clipPath id="clip4_1_943">
<rect x="129.912" y="222.816" width="92.86" height="76.8997" rx="14.5094" transform="rotate(-31.8443 129.912 222.816)" fill="white"/>
</clipPath>
<clipPath id="clip5_1_943">
<rect width="25.2098" height="25.2098" fill="white" transform="translate(178 36.0994)"/>
</clipPath>
<clipPath id="clip6_1_943">
<rect width="25.2098" height="25.2098" fill="white" transform="translate(178 36.0994)"/>
</clipPath>
<clipPath id="clip7_1_943">
<rect width="16.1601" height="16.1601" fill="white" transform="translate(199.331 18)"/>
</clipPath>
</defs>
</svg>
