<?xml version="1.0" encoding="utf-8"?><svg viewBox="0 0 40 40" xmlns="http://www.w3.org/2000/svg" xmlns:xlink="http://www.w3.org/1999/xlink"><style>:root>svg{display:none}:root>svg:target{display:block}</style><svg fill="none" viewBox="0 0 26 26" id="cross-gray" xmlns="http://www.w3.org/2000/svg"><rect width="26" height="26" rx="13" fill="#fff"/><path d="m13 13 3.536 3.535m-7.072 0L13 13l-3.536 3.535Zm7.072-7.07L13 13l3.536-3.536ZM13 13 9.464 9.464 13 13Z" stroke="#B9B9B9" stroke-width="1.5" stroke-linecap="round" stroke-linejoin="round"/></svg><svg fill="none" viewBox="0 0 40 40" id="cross-white" xmlns="http://www.w3.org/2000/svg"><rect x="12.222" y="10.808" width="24" height="2" rx="1" transform="rotate(45 12.222 10.808)" fill="#fff"/><rect width="24" height="2" rx="1" transform="scale(-1 1) rotate(45 -26.935 -28.128)" fill="#fff"/></svg><svg fill="none" viewBox="0 0 22 16" id="usa" xmlns="http://www.w3.org/2000/svg"><g clip-path="url(#ca)"><g clip-path="url(#cb)"><rect width="22" height="16" rx="2" fill="#fff"/><path fill-rule="evenodd" clip-rule="evenodd" d="M0 0h9.429v7.467H0V0Z" fill="#1A47B8"/><path fill-rule="evenodd" clip-rule="evenodd" d="M9.429 0v1.067H22V0H9.429Zm0 2.133V3.2H22V2.133H9.429Zm0 2.134v1.066H22V4.267H9.429Zm0 2.133v1.067H22V6.4H9.429ZM0 8.533V9.6h22V8.533H0Zm0 2.134v1.066h22v-1.066H0ZM0 12.8v1.067h22V12.8H0Zm0 2.133V16h22v-1.067H0Z" fill="#EC1211"/><path fill-rule="evenodd" clip-rule="evenodd" d="M1.048 1.067v1.066h1.047V1.067H1.048Zm2.095 0v1.066H4.19V1.067H3.143Zm2.095 0v1.066h1.048V1.067H5.238Zm2.095 0v1.066h1.048V1.067H7.333ZM6.286 2.133V3.2h1.047V2.133H6.286Zm-2.096 0V3.2h1.048V2.133H4.19Zm-2.095 0V3.2h1.048V2.133H2.095ZM1.048 3.2v1.067h1.047V3.2H1.048Zm2.095 0v1.067H4.19V3.2H3.143Zm2.095 0v1.067h1.048V3.2H5.238Zm2.095 0v1.067h1.048V3.2H7.333ZM1.048 5.333V6.4h1.047V5.333H1.048Zm2.095 0V6.4H4.19V5.333H3.143Zm2.095 0V6.4h1.048V5.333H5.238Zm2.095 0V6.4h1.048V5.333H7.333ZM6.286 4.267v1.066h1.047V4.267H6.286Zm-2.096 0v1.066h1.048V4.267H4.19Zm-2.095 0v1.066h1.048V4.267H2.095Z" fill="#fff"/></g></g><defs><clipPath id="ca"><path fill="#fff" d="M0 0h22v16H0z"/></clipPath><clipPath id="cb"><rect width="22" height="16" rx="2" fill="#fff"/></clipPath></defs></svg></svg>